<svg xmlns:dc="http://purl.org/dc/elements/1.1/" xmlns:cc="http://creativecommons.org/ns#" xmlns:rdf="http://www.w3.org/1999/02/22-rdf-syntax-ns#" xmlns:svg="http://www.w3.org/2000/svg" xmlns="http://www.w3.org/2000/svg" xmlns:xlink="http://www.w3.org/1999/xlink" id="svg94576" viewBox="0 0 1024 768" height="768" width="1024" version="1.1">
  <metadata id="metadata94582" fill="#FFFFFF">
    <rdf:rdf fill="#FFFFFF">
      <cc:work rdf:about="" fill="#FFFFFF">
        <dc:format fill="#FFFFFF">image/svg+xml</dc:format>
        <dc:type rdf:resource="http://purl.org/dc/dcmitype/StillImage" fill="#FFFFFF"></dc:type>
      </cc:work>
    </rdf:rdf>
  </metadata>
  <defs id="defs94580"></defs>
  <linearGradient spreadMethod="pad" y2="30%" x2="-10%" y1="120%" x1="30%" id="3d_gradient2-logo-74cb7228-9531-41f8-9b89-77755d19ceaf" fill="#FFFFFF">
    <stop id="stop94557" stop-opacity="1" stop-color="#ffffff" offset="0%" fill="#FFFFFF"></stop>
    <stop id="stop94559" stop-opacity="1" stop-color="#000000" offset="100%" fill="#FFFFFF"></stop>
  </linearGradient>
  <linearGradient gradientTransform="rotate(-30)" spreadMethod="pad" y2="30%" x2="-10%" y1="120%" x1="30%" id="3d_gradient3-logo-74cb7228-9531-41f8-9b89-77755d19ceaf" fill="#FFFFFF">
    <stop id="stop94562" stop-opacity="1" stop-color="#ffffff" offset="0%" fill="#FFFFFF"></stop>
    <stop id="stop94564" stop-opacity="1" stop-color="#cccccc" offset="50%" fill="#FFFFFF"></stop>
    <stop id="stop94566" stop-opacity="1" stop-color="#000000" offset="100%" fill="#FFFFFF"></stop>
  </linearGradient>
  <g id="logo-group" fill="#FFFFFF">
    <image xlink:href="" id="container" x="272" y="144" width="480" height="480" style="display: none;" transform="translate(0 0)" fill="#FFFFFF"></image>
    <g id="logo-center" transform="translate(0 0)" fill="#FFFFFF">
      <image xlink:href="" id="icon_container" style="display: none;" x="0" y="0" fill="#FFFFFF"></image>
      <g id="slogan" style="font-style:normal;font-weight:400;font-size:32px;line-height:1;font-family:Montserrat;font-variant-ligatures:none;text-align:center;text-anchor:middle" transform="translate(0 0)" fill="#FFFFFF"></g>
      <g id="title" style="font-style:normal;font-weight:500;font-size:72px;line-height:1;font-family:'Raleway Medium Alt1';font-variant-ligatures:none;text-align:center;text-anchor:middle" transform="translate(0 0)" fill="#FFFFFF">
        <path id="path94585" style="font-style:normal;font-weight:500;font-size:72px;line-height:1;font-family:'Raleway Medium Alt1';font-variant-ligatures:none;text-align:center;text-anchor:middle" d="m 438.10494,-40.392 3.024,-5.256 c -2.16,-1.728 -4.68,-3.168 -7.416,-4.248 -2.808,-1.008 -5.904,-1.584 -9.36,-1.584 -2.664,0 -5.112,0.36 -7.344,1.008 -2.304,0.648 -4.248,1.584 -5.832,2.88 -1.656,1.296 -2.952,2.88 -3.816,4.752 -0.936,1.872 -1.368,4.032 -1.368,6.48 0,2.016 0.288,3.744 1.008,5.184 0.648,1.44 1.656,2.664 2.952,3.672 1.296,1.008 2.952,1.872 4.968,2.592 1.944,0.72 4.248,1.44 6.84,2.016 2.304,0.576 4.392,1.152 6.264,1.728 1.872,0.576 3.384,1.152 4.68,1.872 1.224,0.72 2.16,1.584 2.808,2.592 0.648,1.008 1.008,2.16 1.008,3.6 0,2.592 -1.008,4.536 -3.024,5.832 -2.016,1.296 -4.896,1.944 -8.496,1.944 -2.016,0 -3.888,-0.144 -5.688,-0.576 -1.8,-0.432 -3.456,-0.936 -5.04,-1.584 -1.584,-0.648 -2.952,-1.368 -4.176,-2.232 -1.224,-0.792 -2.232,-1.584 -2.952,-2.448 l -3.096,5.472 c 2.88,2.376 6.048,4.176 9.576,5.4 3.528,1.224 7.272,1.8 11.232,1.8 2.592,0 5.04,-0.216 7.344,-0.792 2.232,-0.576 4.176,-1.44 5.832,-2.592 1.656,-1.152 2.952,-2.664 3.96,-4.464 0.936,-1.8 1.44,-3.96 1.44,-6.408 0,-2.304 -0.432,-4.248 -1.224,-5.832 -0.792,-1.584 -1.944,-2.88 -3.456,-4.032 -1.512,-1.08 -3.312,-2.016 -5.472,-2.736 -2.16,-0.72 -4.536,-1.44 -7.128,-2.016 -2.304,-0.504 -4.32,-1.008 -5.976,-1.512 -1.728,-0.432 -3.096,-1.008 -4.248,-1.656 -1.152,-0.648 -1.944,-1.44 -2.448,-2.376 -0.576,-0.864 -0.792,-2.016 -0.792,-3.456 0,-2.592 0.864,-4.608 2.736,-6.12 1.872,-1.44 4.752,-2.232 8.784,-2.232 1.512,0 2.952,0.216 4.392,0.504 1.44,0.288 2.736,0.72 3.96,1.224 1.152,0.504 2.232,1.08 3.24,1.656 0.936,0.648 1.728,1.296 2.304,1.944 z" stroke-width="0px" stroke-linejoin="miter" stroke-miterlimit="2" fill="#249ED6" stroke="#249ED6" transform="translate(0 344.6848) translate(251.83576860000005 -23.051199999999994) scale(2.44) translate(-404.04894 51.48)"></path>
        <path id="path94587" style="font-style:normal;font-weight:500;font-size:72px;line-height:1;font-family:'Raleway Medium Alt1';font-variant-ligatures:none;text-align:center;text-anchor:middle" d="m 450.94794,0 h 6.336 v -37.584 h -6.336 z m 0,-44.64 h 6.336 v -7.92 h -6.336 z" stroke-width="0px" stroke-linejoin="miter" stroke-miterlimit="2" fill="#339FD2" stroke="#339FD2" transform="translate(0 344.6848) translate(366.2693286 -25.686399999999992) scale(2.44) translate(-450.94794 52.56)"></path>
        <path id="path94589" style="font-style:normal;font-weight:500;font-size:72px;line-height:1;font-family:'Raleway Medium Alt1';font-variant-ligatures:none;text-align:center;text-anchor:middle" d="m 467.68569,-52.56 v 45.144 c 0,2.52 0.648,4.464 2.088,5.832 1.44,1.44 3.384,2.088 5.832,2.088 1.08,0 2.376,-0.144 3.816,-0.432 1.44,-0.288 2.664,-0.648 3.744,-1.08 l -1.008,-5.112 c -0.648,0.288 -1.296,0.504 -2.016,0.648 -0.72,0.144 -1.368,0.216 -1.872,0.216 -1.368,0 -2.448,-0.36 -3.168,-1.152 -0.72,-0.792 -1.08,-1.872 -1.08,-3.312 v -42.84 z" stroke-width="0px" stroke-linejoin="miter" stroke-miterlimit="2" fill="#439FCE" stroke="#439FCE" transform="translate(0 344.6848) translate(407.1094386 -25.686399999999992) scale(2.44) translate(-467.68569 52.56)"></path>
        <path id="path94591" style="font-style:normal;font-weight:500;font-size:72px;line-height:1;font-family:'Raleway Medium Alt1';font-variant-ligatures:none;text-align:center;text-anchor:middle" d="m 488.07294,0 h 6.336 v -37.584 h -6.336 z m 0,-44.64 h 6.336 v -7.92 h -6.336 z" stroke-width="0px" stroke-linejoin="miter" stroke-miterlimit="2" fill="#52A0CA" stroke="#52A0CA" transform="translate(0 344.6848) translate(456.8543285999999 -25.686399999999992) scale(2.44) translate(-488.07294 52.56)"></path>
        <path id="path94593" style="font-style:normal;font-weight:500;font-size:72px;line-height:1;font-family:'Raleway Medium Alt1';font-variant-ligatures:none;text-align:center;text-anchor:middle" d="m 515.53869,0 h 6.768 l 14.832,-37.584 h -6.048 l -11.952,32.04 -11.88,-32.04 h -6.552 z" stroke-width="0px" stroke-linejoin="miter" stroke-miterlimit="2" fill="#68A1C4" stroke="#68A1C4" transform="translate(0 344.6848) translate(487.6806785999998 10.855040000000002) scale(2.44) translate(-500.70669 37.584)"></path>
        <path id="path94595" style="font-style:normal;font-weight:500;font-size:72px;line-height:1;font-family:'Raleway Medium Alt1';font-variant-ligatures:none;text-align:center;text-anchor:middle" d="m 558.70494,0.72 c 1.872,0 3.672,-0.216 5.4,-0.72 1.728,-0.432 3.24,-1.08 4.68,-1.944 1.44,-0.864 2.664,-1.872 3.744,-3.024 1.08,-1.152 1.944,-2.376 2.592,-3.816 l -5.472,-1.512 c -0.432,1.008 -1.008,1.872 -1.728,2.592 -0.72,0.792 -1.584,1.44 -2.52,1.944 -1.008,0.576 -2.016,1.008 -3.096,1.296 -1.152,0.288 -2.232,0.432 -3.384,0.432 -1.656,0 -3.24,-0.288 -4.68,-0.936 -1.44,-0.576 -2.736,-1.44 -3.888,-2.592 -1.152,-1.08 -2.088,-2.376 -2.808,-3.96 -0.72,-1.512 -1.152,-3.24 -1.296,-5.112 h 31.176 c 0,-0.216 0.072,-0.576 0.072,-1.008 0,-0.432 0.072,-0.864 0.072,-1.44 0,-2.448 -0.504,-4.896 -1.368,-7.2 -0.864,-2.304 -2.16,-4.392 -3.744,-6.12 -1.656,-1.728 -3.672,-3.168 -5.976,-4.248 -2.304,-1.008 -4.896,-1.584 -7.704,-1.584 -2.88,0 -5.472,0.576 -7.776,1.584 -2.376,1.008 -4.392,2.448 -6.12,4.176 -1.728,1.8 -3.024,3.888 -3.96,6.192 -0.936,2.376 -1.368,4.896 -1.368,7.488 0,2.664 0.432,5.184 1.368,7.56 0.936,2.376 2.232,4.464 3.96,6.192 1.656,1.8 3.672,3.24 6.048,4.248 2.304,1.008 4.896,1.512 7.776,1.512 z m 12.888,-22.032 h -25.488 c 0.144,-1.728 0.504,-3.384 1.224,-4.896 0.72,-1.44 1.584,-2.736 2.736,-3.816 1.152,-1.08 2.448,-1.944 3.96,-2.52 1.44,-0.576 3.024,-0.936 4.752,-0.936 1.656,0 3.24,0.36 4.752,0.936 1.44,0.576 2.736,1.44 3.888,2.448 1.152,1.08 2.088,2.376 2.808,3.888 0.72,1.512 1.224,3.168 1.368,4.896 z" stroke-width="0px" stroke-linejoin="miter" stroke-miterlimit="2" fill="#82A2BE" stroke="#82A2BE" transform="translate(0 344.6848) translate(582.4655285999999 9.273920000000004) scale(2.44) translate(-539.55294 38.232)"></path>
        <path id="path94597" style="font-style:normal;font-weight:500;font-size:72px;line-height:1;font-family:'Raleway Medium Alt1';font-variant-ligatures:none;text-align:center;text-anchor:middle" d="m 617.29831,0 v -22.464 c 0,-2.232 -0.216,-4.32 -0.576,-6.264 -0.36,-1.872 -0.936,-3.528 -1.8,-4.968 -0.864,-1.44 -2.016,-2.52 -3.456,-3.312 -1.44,-0.792 -3.24,-1.224 -5.4,-1.224 -3.312,0 -6.408,0.792 -9.216,2.376 -2.808,1.584 -4.968,3.744 -6.408,6.336 v -8.064 h -5.76 V 0 h 6.336 v -22.68 c 0.432,-1.44 1.08,-2.736 1.944,-3.96 0.864,-1.152 1.872,-2.232 3.024,-3.096 1.152,-0.864 2.376,-1.512 3.672,-2.016 1.296,-0.504 2.592,-0.792 3.888,-0.792 2.448,0 4.32,0.936 5.544,2.736 1.224,1.872 1.872,4.752 1.872,8.784 V 0 Z" stroke-width="0px" stroke-linejoin="miter" stroke-miterlimit="2" fill="#BBA4AF" stroke="#BBA4AF" transform="translate(0 344.6848) translate(692.5811914 9.273920000000004) scale(2.44) translate(-584.68231 38.232)"></path>
      </g>
      <image xlink:href="" id="icon" style="display: none;" x="0" y="0" fill="#FFFFFF"></image>
    </g>
  </g>
</svg>